<?xml version="1.0" encoding="UTF-8" standalone="no"?>
<!-- Created with Inkscape (http://www.inkscape.org/) -->

<svg
   xmlns:dc="http://purl.org/dc/elements/1.1/"
   xmlns:cc="http://creativecommons.org/ns#"
   xmlns:rdf="http://www.w3.org/1999/02/22-rdf-syntax-ns#"
   xmlns:svg="http://www.w3.org/2000/svg"
   xmlns="http://www.w3.org/2000/svg"
   xmlns:sodipodi="http://sodipodi.sourceforge.net/DTD/sodipodi-0.dtd"
   xmlns:inkscape="http://www.inkscape.org/namespaces/inkscape"
   width="18"
   height="18"
   id="svg3511"
   version="1.1"
   inkscape:version="0.48.4 r9939"
   sodipodi:docname="fb_blue.svg"
   inkscape:export-filename="/usr/local/google/home/iainmcgin/facebook-btn-xxxhdpi.png"
   inkscape:export-xdpi="360"
   inkscape:export-ydpi="360">
  <defs
     id="defs3513" />
  <sodipodi:namedview
     id="base"
     pagecolor="#ffffff"
     bordercolor="#666666"
     borderopacity="1.0"
     inkscape:pageopacity="0.0"
     inkscape:pageshadow="2"
     inkscape:zoom="6.7060195"
     inkscape:cx="-9.748882"
     inkscape:cy="17.031284"
     inkscape:document-units="px"
     inkscape:current-layer="g3881"
     showgrid="false"
     fit-margin-top="0"
     fit-margin-left="0"
     fit-margin-right="0"
     fit-margin-bottom="0"
     inkscape:window-width="1320"
     inkscape:window-height="851"
     inkscape:window-x="391"
     inkscape:window-y="292"
     inkscape:window-maximized="0" />
  <metadata
     id="metadata3516">
    <rdf:RDF>
      <cc:Work
         rdf:about="">
        <dc:format>image/svg+xml</dc:format>
        <dc:type
           rdf:resource="http://purl.org/dc/dcmitype/StillImage" />
        <dc:title></dc:title>
      </cc:Work>
    </rdf:RDF>
  </metadata>
  <g
     inkscape:label="Layer 1"
     inkscape:groupmode="layer"
     id="layer1"
     transform="translate(-354.63812,-534.22147)">
    <g
       id="g3881"
       transform="translate(82.7836,10.40233)">
      <path
         d="m 288.86109,541.81914 c 0.54865,0 0.99343,-0.44479 0.99343,-0.99343 l 0,-16.01314 c 0,-0.54878 -0.44478,-0.99343 -0.99343,-0.99343 l -16.01307,0 c -0.54885,0 -0.9935,0.44465 -0.9935,0.99343 l 0,16.01314 c 0,0.54864 0.44465,0.99343 0.9935,0.99343 l 16.01307,0"
         style="fill:#ffffff;fill-opacity:1;fill-rule:nonzero;stroke:none"
         id="path52"
         inkscape:connector-curvature="0" />
      <path
         d="m 284.27424,541.81914 0,-6.97052 2.33973,0 0.3503,-2.71659 -2.69003,0 0,-1.73442 c 0,-0.78651 0.21838,-1.32248 1.3463,-1.32248 l 1.43855,-6.7e-4 0,-2.42968 c -0.24893,-0.0331 -1.10276,-0.10703 -2.09619,-0.10703 -2.07407,0 -3.49401,1.26596 -3.49401,3.5909 l 0,2.00338 -2.34572,0 0,2.71659 2.34572,0 0,6.97052 2.80535,0"
         style="fill:#3d539e;fill-opacity:1;fill-rule:nonzero;stroke:none"
         id="path54"
         inkscape:connector-curvature="0" />
    </g>
  </g>
</svg>
