<svg xmlns="http://www.w3.org/2000/svg" viewBox="0 0 152 152" width="152" height="152">
    <path fill="#4285F4" d="M148.98 77.73c0-5.45-.47-10.71-1.36-15.73H76v29.55h41.11c-1.76 9.56-7.09 17.69-15.18 23.15v18.96h24.43c14.36-13.24 22.62-32.8 22.62-55.93z"/>
    <path fill="#34A853" d="M76 152c20.51 0 37.78-6.74 50.37-18.34l-24.43-18.96C95.1 119.3 86.3 122 76 122c-19.85 0-36.69-13.37-42.74-31.4H8.1v19.53C20.6 134.96 46.3 152 76 152z"/>
    <path fill="#FBBC05" d="M33.26 90.6c-1.54-4.61-2.4-9.52-2.4-14.6s.85-9.99 2.4-14.6V41.87H8.1C2.93 52.14 0 63.72 0 76s2.93 23.86 8.1 34.13L33.26 90.6z"/>
    <path fill="#EA4335" d="M76 30c11.22 0 21.28 3.87 29.21 11.42l.01.02 21.63-21.63C113.68 7.53 96.5 0 76 0 46.3 0 20.6 17.04 8.1 41.87L33.26 61.4C39.31 43.37 56.15 30 76 30z"/>
    <path fill="none" d="M0 0h152v152H0z"/>
</svg>
